<svg xmlns="http://www.w3.org/2000/svg" width="24" height="24" viewBox="0 0 24 24" fill="none">
  <path opacity="0.4" d="M6 2h12c1.1 0 2 .9 2 2v16c0 1.1-.9 2-2 2H6c-1.1 0-2-.9-2-2V4c0-1.1.9-2 2-2z" fill="currentColor"/>
  <path d="M12 7c-1.66 0-3 1.34-3 3s1.34 3 3 3 3-1.34 3-3-1.34-3-3-3zm0 4.5c-.83 0-1.5-.67-1.5-1.5s.67-1.5 1.5-1.5 1.5.67 1.5 1.5-.67 1.5-1.5 1.5z" fill="currentColor"/>
  <path d="M8 17h8v1H8v-1zm1-2h6v1H9v-1z" fill="currentColor"/>
  <rect x="5" y="3" width="14" height="2" rx="1" fill="currentColor"/>
</svg>
